<svg width="47" height="40" viewBox="0 0 47 40" fill="none" xmlns="http://www.w3.org/2000/svg">
<path d="M42.3602 3.7728C41.158 2.57376 39.726 1.62271 38.1477 0.974986C36.5694 0.327287 34.8761 -0.00414704 33.1668 3.91659e-05C31.4572 -0.00414704 29.7642 0.327287 28.1858 0.974986C26.6075 1.62271 25.1756 2.57376 23.9734 3.7728L23.24 4.52218L22.5066 3.79861C20.0752 1.40009 16.7777 0.0526251 13.3394 0.0526251C9.90107 0.0526251 6.60357 1.40009 4.17219 3.79861C1.77263 6.21382 0.428589 9.46095 0.428589 12.8429C0.428589 16.2249 1.77263 19.4721 4.17219 21.8871L21.9042 39.4331C22.2725 39.7961 22.7717 40 23.2924 40C23.8128 40 24.3123 39.7961 24.6806 39.4331L42.4126 21.8871C44.8131 19.4641 46.1525 16.2076 46.1428 12.8194C46.1331 9.43118 44.7745 6.18235 42.3602 3.7728Z" fill="#030C1A"/>
</svg>
