<svg width="89" height="89" viewBox="0 0 89 89" fill="none" xmlns="http://www.w3.org/2000/svg">
<path d="M40.3025 2.4855C42.2728 -0.558858 46.7272 -0.558865 48.6975 2.48549L54.8764 12.0322C56.0042 13.7748 58.0913 14.6393 60.121 14.2046L71.2406 11.8231C74.7866 11.0637 77.9363 14.2134 77.1769 17.7594L74.7954 28.879C74.3607 30.9087 75.2252 32.9958 76.9678 34.1236L86.5145 40.3025C89.5589 42.2728 89.5589 46.7272 86.5145 48.6975L76.9678 54.8764C75.2253 56.0042 74.3607 58.0913 74.7954 60.121L77.1768 71.2406C77.9363 74.7866 74.7866 77.9363 71.2406 77.1769L60.121 74.7954C58.0913 74.3607 56.0042 75.2252 54.8764 76.9678L48.6975 86.5145C46.7272 89.5589 42.2728 89.5589 40.3025 86.5145L34.1236 76.9678C32.9958 75.2253 30.9087 74.3607 28.879 74.7954L17.7594 77.1768C14.2134 77.9363 11.0637 74.7866 11.8231 71.2406L14.2046 60.121C14.6393 58.0913 13.7748 56.0042 12.0322 54.8764L2.4855 48.6975C-0.558858 46.7272 -0.558865 42.2728 2.48549 40.3025L12.0322 34.1236C13.7748 32.9958 14.6393 30.9087 14.2046 28.879L11.8231 17.7594C11.0637 14.2134 14.2134 11.0637 17.7594 11.8231L28.879 14.2046C30.9087 14.6393 32.9958 13.7748 34.1236 12.0322L40.3025 2.4855Z" fill="#F7C130"/>
</svg>
