<svg width="40" height="38" viewBox="0 0 40 38" fill="none" xmlns="http://www.w3.org/2000/svg">
<path d="M12.4822 31.6911V11.8464C12.4822 11.0651 12.7166 10.3034 13.1463 9.65882L18.4785 1.72876C19.3184 0.459168 21.4083 -0.439313 23.1858 0.224781C25.0999 0.869343 26.3695 3.01788 25.9593 4.93204L24.9437 11.3191C24.8655 11.905 25.0218 12.4324 25.3538 12.8426C25.6859 13.2137 26.1742 13.4481 26.7016 13.4481H34.7293C36.2723 13.4481 37.6005 14.0731 38.3818 15.1669C39.124 16.2216 39.2608 17.5889 38.7725 18.9757L33.9675 33.6053C33.362 36.0272 30.7252 38 28.1079 38H20.4903C19.1817 38 17.3457 37.5508 16.5058 36.7109L14.0057 34.7772C13.0486 34.0545 12.4822 32.9021 12.4822 31.6911Z" fill="#030C1A"/>
<path d="M6.26983 8.03406H4.25802C1.23053 8.03406 0 9.20599 0 12.0968V31.7461C0 34.6369 1.23053 35.8088 4.25802 35.8088H6.26983C9.29732 35.8088 10.5278 34.6369 10.5278 31.7461V12.0968C10.5278 9.20599 9.29732 8.03406 6.26983 8.03406Z" fill="#030C1A"/>
</svg>
