<svg width="32" height="32" viewBox="0 0 32 32" fill="none" xmlns="http://www.w3.org/2000/svg">
<path d="M5.17747 11.14L3.54747 9.6575C3.54747 9.6575 3.47997 8.92 4.05747 8.685C4.71497 8.4175 5.34747 8.7325 5.34747 8.7325L6.34497 10.6525L5.17747 11.14Z" fill="#B40E1C"/>
<path d="M26.675 11.19L25.265 10.0725L26.2125 8.6875C26.2125 8.6875 26.7025 8.29 27.55 8.7125C28.1975 9.035 28.3575 9.66 28.2825 9.8525C28.21 10.045 26.675 11.19 26.675 11.19Z" fill="#B40E1C"/>
<path d="M5.68752 10.8725L4.90002 10.66C4.90002 10.66 4.81002 10.2875 4.98002 9.9575C5.15752 9.615 5.50502 9.6525 5.50502 9.6525C5.50502 9.6525 4.66752 9.245 5.03252 8.2475C5.39752 7.25 6.51502 7.47 6.51502 7.47C6.51502 7.47 6.49003 6.8375 7.00253 6.4475C7.51253 6.0575 7.90253 6.35 7.90253 6.35C7.90253 6.35 7.50752 5.0875 8.48502 4.5025C9.32002 4.0025 9.89503 4.4775 9.89503 4.4775C9.89503 4.4775 10.2325 3.6325 11.1575 3.615C11.85 3.6025 12.06 3.87 12.06 3.87C12.06 3.87 12.3025 3.3825 12.6925 3.165C13.0825 2.945 13.315 2.9775 13.315 2.9775C13.315 2.9775 13.1375 2.3725 13.325 1.8775C13.655 1.0025 14.565 0.8075 15.245 0.9775C16.1775 1.21 16.0625 1.855 16.0625 1.855C16.0625 1.855 16.535 1.5375 16.9725 1.5875C17.41 1.635 17.64 1.925 17.64 1.925C17.64 1.925 17.945 1.03 18.965 1.03C19.9875 1.03 20.2775 1.6375 20.3275 2.1C20.3775 2.5625 20.07 3.1075 20.07 3.1075C20.07 3.1075 20.2175 3.165 20.2625 3.515C20.2975 3.78 20.195 4.015 20.195 4.015C20.195 4.015 20.665 3.645 21.6025 4.015C23.1575 4.6275 22.8325 6.2825 22.8325 6.2825C22.8325 6.2825 23.2825 6.23 23.6225 6.375C24.0125 6.5425 24.1925 6.8175 24.1925 6.8175C24.1925 6.8175 24.28 6.0925 25.19 6.0875C26.14 6.0825 26.9175 7.8625 26.7475 8.3725C26.5775 8.8825 26.115 9.005 26.115 9.005C26.115 9.005 26.5375 9.125 26.695 9.6375C26.8825 10.2425 26.7275 10.885 26.7275 10.885C26.7275 10.885 20.1325 14.91 20.06 14.885C19.9875 14.86 11.815 15.4925 11.815 15.4925L5.68752 10.8725Z" fill="#FFB91F"/>
<path d="M8.70996 12.1175C8.70996 12.065 8.78496 11.8475 8.93246 11.7525C9.11496 11.635 9.38746 11.6225 9.38746 11.6225C9.38746 11.6225 9.08746 11.48 8.91996 11.01C8.80996 10.705 8.94496 10.375 8.94496 10.375C8.94496 10.375 8.15246 10.4125 7.96996 9.8125C7.78746 9.2125 8.07496 9.135 8.07496 9.135C8.07496 9.135 7.75746 7.4325 9.08996 7.4025C10.9125 7.3625 10.6 9.68 10.6 9.68C10.6 9.68 10.86 9.68 11.0175 9.8225C11.1725 9.965 11.225 10.11 11.225 10.11C11.225 10.11 11.565 9.5975 12.37 9.72C14.27 10.0075 13.385 11.8675 13.385 11.8675C13.385 11.8675 13.0325 10.905 12.4225 10.865C11.81 10.825 11.055 11.2425 11.055 11.2425C11.055 11.2425 12.2125 11.385 12.525 11.9975C12.8375 12.61 12.8125 13.4425 12.8125 13.4425C12.8125 13.4425 10.495 14.12 10.4425 14.0425C10.3875 13.9675 8.70996 12.1175 8.70996 12.1175Z" fill="#FCE193"/>
<path d="M10.1525 10.0875C9.98504 10.015 9.51504 10.4275 9.50504 10.735C9.49504 11.0425 9.75504 11.435 10.065 11.4625C10.3725 11.49 10.68 11.1725 10.68 10.865C10.68 10.71 10.36 10.1775 10.1525 10.0875Z" fill="#E17A2C"/>
<path d="M11.5675 6.6375C11.5675 6.6375 10.32 6.4575 10.345 7.4875C10.3775 8.8525 11.915 8.65 11.9275 8.7225C11.94 8.795 12.0025 9.26 12.0025 9.26C12.0025 9.26 12.61 9.19 13.1975 9.5375C13.785 9.885 14.0375 10.2925 14.0375 10.2925C14.0375 10.2925 14.1575 9.73 14.325 9.49C14.4925 9.25 14.6725 9.07 14.6725 9.07C14.6725 9.07 14.6725 8.77 14.5875 8.53C14.5275 8.3575 14.385 8.2675 14.385 8.2675C14.385 8.2675 15.735 7.6275 15.055 6.565C14.2875 5.3675 13.065 6.48 13.065 6.48C13.065 6.48 12.585 5.785 11.9875 5.9525C11.3875 6.12 11.5675 6.6375 11.5675 6.6375Z" fill="#FCE193"/>
<path d="M14.6349 11.13C14.6349 11.13 14.2749 9.895 14.9474 9.5475C15.6199 9.2 16.0624 9.595 16.0849 9.5225C16.1074 9.45 17.1524 8.335 18.0499 8.36C19.3799 8.395 19.6849 9.24 19.7149 9.33C19.8624 9.76 19.6674 10.4575 19.6674 10.4575C19.6674 10.4575 20.1699 9.6775 20.8899 9.75C21.6099 9.8225 21.6899 10.3975 21.6899 10.3975C21.6899 10.3975 22.4849 10.89 22.4474 11.3575C22.4124 11.825 21.9074 12.1725 21.9074 12.1725L20.6849 13.37L19.3674 12.915C19.3674 12.915 19.1874 12.315 19.1874 11.945C19.1874 11.5725 19.2224 11.275 19.2224 11.275C19.2224 11.275 18.8624 11.4675 18.6124 11.5375C18.3599 11.61 17.8324 11.6225 17.8324 11.6225C17.8324 11.6225 17.8124 11.32 17.3049 10.975C16.1924 10.22 14.6349 11.13 14.6349 11.13Z" fill="#FCE193"/>
<path d="M15.1625 12.795C15.1625 12.795 14.755 11.315 15.93 11.285C17.3325 11.25 17.535 12.495 17.585 13.19C17.6325 13.885 15.775 14.9525 15.7025 14.915C15.63 14.88 13.89 13.81 13.89 13.81C13.89 13.81 13.7575 13.425 14.05 13.0825C14.355 12.72 15.1625 12.795 15.1625 12.795Z" fill="#FCE193"/>
<path d="M22.965 12.1125C22.965 12.1125 22.5575 11.7775 22.6775 11.1425C22.7975 10.5075 23.2875 10.4725 23.2875 10.4725C23.2875 10.4725 22.915 9.8975 23.095 9.525C23.275 9.1525 23.5625 9.07 24.485 9.0825C25.4075 9.095 25.875 9.345 26.175 9.67C26.445 9.96 26.27 10.845 26.27 10.845C26.27 10.845 24.905 12.4875 24.7475 12.45C24.5925 12.4125 22.965 12.1125 22.965 12.1125Z" fill="#FCE193"/>
<path d="M19.14 7.835C19.14 7.835 19.62 8.135 19.775 8.3625C19.93 8.59 20.135 9.0225 20.135 9.0225C20.135 9.0225 20.235 7.8525 20.7175 7.2825C21.245 6.66 21.9325 6.685 21.945 6.685C22.075 6.685 22.2925 5.715 21.79 5.2C21.16 4.555 20.0775 4.78 20.0875 4.8775C20.0975 4.975 20.4825 5.44 20.2325 6.52C20 7.505 19.14 7.835 19.14 7.835Z" fill="#FCE193"/>
<path d="M15.785 8.0625C15.9775 8.16 16.32 7.8375 16.6125 7.7025C16.9475 7.5475 17.38 7.4875 17.3925 7.32C17.405 7.1525 16.925 6.5525 16.23 6.8875C15.535 7.2225 15.57 7.955 15.785 8.0625Z" fill="#FCE193"/>
<path d="M5.455 8.6425C5.395 9.2525 6.0175 9.4425 6.0175 9.4425C6.0175 9.4425 5.94 10.005 6.1625 10.33C6.3425 10.5925 6.715 10.9175 6.87 10.8825C7.025 10.8475 7.5175 10.38 7.5175 10.3425C7.5175 10.3075 7.49 8.965 7.205 8.485C6.81 7.81 5.5625 7.56 5.455 8.6425Z" fill="#FCE193"/>
<path d="M7.63752 7.835C7.80502 7.835 7.97252 7.4525 8.07002 7.3075C8.16502 7.1625 8.52502 6.925 8.52502 6.925C8.52502 6.925 7.97252 6.5425 7.62502 6.89C7.27752 7.235 7.38502 7.835 7.63752 7.835Z" fill="#FCE193"/>
<path d="M8.97745 6.745C8.97745 6.745 9.31245 6.71 9.50495 6.72C9.69745 6.7325 10.02 6.7925 10.02 6.7925C10.02 6.7925 10.0675 6.48 10.415 6.2525C10.7625 6.025 11.085 6.0975 11.085 6.0975C11.085 6.0975 11.1575 5.665 11.4325 5.475C11.7075 5.2825 11.875 5.2825 11.875 5.2825C11.875 5.2825 12.13 4.6275 11.755 4.3825C10.6875 3.6875 10.14 5.0825 9.95745 5.1125C9.82245 5.135 9.35245 4.6675 8.83745 5.0275C7.96245 5.6425 8.97745 6.745 8.97745 6.745Z" fill="#FCE193"/>
<path d="M12.3575 5.175C12.3575 5.175 12.645 5.2475 12.86 5.3775C13.075 5.5075 13.4 5.7375 13.4 5.7375L14.9825 5.69C14.9825 5.69 15.33 5.235 15.8325 5.03C16.2425 4.8625 16.72 4.85 16.72 4.85C16.72 4.85 16.765 3.68 15.7975 3.375C14.575 2.9925 14.1675 4.2375 14.1675 4.2375C14.1675 4.2375 13.8075 3.8325 13.3875 3.8425C12.455 3.8675 12.3575 5.175 12.3575 5.175Z" fill="#FCE193"/>
<path d="M14.1425 4.755C13.9975 4.755 13.1475 5.485 13.125 5.5575C13.1 5.63 13.3275 5.75 13.3525 5.82C13.3775 5.8925 14.91 5.725 14.995 5.665C15.0775 5.605 14.4675 4.755 14.1425 4.755Z" fill="#E17A2C"/>
<path d="M12.2275 7.2225C12.235 7.365 12.935 8.3 13.15 8.3375C13.365 8.375 14.075 7.5825 13.87 7.4025C13.775 7.3175 13.0675 7.415 13.0675 7.415C13.0675 7.415 13.055 6.8875 12.995 6.805C12.9325 6.72 12.215 6.985 12.2275 7.2225Z" fill="#E17A2C"/>
<path d="M13.965 3.125C14.1475 3.13 14.3125 2.455 14.5275 2.2375C14.7425 2.02 15.2575 1.805 15.1375 1.47C15.0175 1.135 14.095 1.23 13.795 1.7225C13.4625 2.27 13.5675 3.1125 13.965 3.125Z" fill="#FCE193"/>
<path d="M16.5175 2.945C16.555 3.11 17.02 3.305 17.0925 3.3875C17.165 3.4725 17.5 3.77 17.5 3.77C17.5 3.77 18.2675 3.5775 18.7225 3.6975C19.1775 3.8175 19.3925 4.14 19.525 4.0575C19.6575 3.9725 19.585 3.615 19.5125 3.495C19.44 3.375 19.2975 3.1475 19.2975 3.1475C19.2975 3.1475 19.9875 2.0775 19.2725 1.9C18.255 1.6475 18.05 2.68 17.9175 2.7025C17.785 2.725 17.4025 2.32 16.9825 2.38C16.565 2.4425 16.4675 2.73 16.5175 2.945Z" fill="#FCE193"/>
<path d="M17.0925 6.025C17.2625 6.4025 17.8 6.4325 17.8 6.4325C17.8 6.4325 18.0625 7.2725 18.6025 7.3425C19.1425 7.415 19.4975 6.8525 19.61 6.385C19.755 5.785 19.7575 4.4875 18.4225 4.5025C17.415 4.515 16.985 5.785 17.0925 6.025Z" fill="#FCE193"/>
<path d="M22.3875 10.3025C22.555 10.2975 22.4425 9.3125 22.9725 8.9125C23.545 8.48 23.9925 8.56 24.58 8.6C25.19 8.64 25.6025 8.83 25.73 8.66C25.89 8.45 25.9875 6.985 25.155 6.8625C24.6625 6.79 24.5325 7.27 24.5325 7.27C24.5325 7.27 24.03 7.1625 23.7525 7.665C23.5625 8.0125 23.55 8.24 23.465 8.265C23.4275 8.275 22.1425 6.29 21.14 7.4975C20.0975 8.755 22.0025 9.7975 22.0025 9.7975C22.0025 9.7975 22.065 10.315 22.3875 10.3025Z" fill="#FCE193"/>
<path d="M18.59 4.72C18.5225 4.765 18.495 5.93 18.555 5.9425C18.615 5.955 19.37 6.3625 19.4775 6.255C19.585 6.1475 19.585 5.595 19.3925 5.2375C19.2725 5.0075 18.83 4.5625 18.59 4.72Z" fill="#E17A2C"/>
<path d="M16.9951 3.2575C16.9851 3.38 17.1501 4.025 17.3426 4.0475C17.6626 4.0875 18.2526 3.7475 18.3126 3.6275C18.3726 3.5075 18.2651 3.16 17.7851 3.04C17.3101 2.9225 17.0076 3.09 16.9951 3.2575Z" fill="#E17A2C"/>
<path d="M17.1151 10.555C17.2826 10.735 17.8626 10.245 18.0726 10.34C18.3126 10.4475 18.0726 11.07 18.3351 11.1425C18.5976 11.215 19.1251 10.3625 19.0651 9.9925C19.0401 9.8375 18.7301 9.6325 18.3951 9.5125C18.0601 9.3925 17.6051 9.31 17.4001 9.44C17.1951 9.57 16.8151 10.2325 17.1151 10.555Z" fill="#E17A2C"/>
<path d="M24.125 11.4175C24.125 11.4175 24.1 10.65 24.305 10.2675C24.5075 9.885 25.025 9.945 25.1075 10.04C25.19 10.135 25.48 10.83 25.48 10.83L24.87 11.8725L24.125 11.4175Z" fill="#E17A2C"/>
<path d="M15.8375 15.3375L13.4475 14.4025L13.38 14.2975C13.26 14.11 11.685 13.8575 11.685 13.8575L11.545 13.83L9.58251 13.4075L9.5275 13.3125C9.405 13.105 7.825 12.5425 7.825 12.5425L6.34 11.9425L6.3 11.845C6.1675 11.5275 5.1625 10.9775 5.14 11.0225L4.6925 10.8C4.81 10.5625 5.1825 10.17 5.7475 10.3975C6.24 10.595 6.8025 11.2775 6.925 11.5475L7.7325 11.965C7.93 11.84 8.3025 11.715 8.8125 11.8925C9.5525 12.1525 9.7475 12.725 9.9 12.9625L11.525 13.3125C11.6975 13.1725 12.0625 12.9375 12.55 13.0175C13.4025 13.1575 13.61 13.65 13.7875 13.9L15.66 14.06C15.8475 13.8025 16.325 13.2575 17.0675 13.155C17.7625 13.0575 18.27 13.2975 18.475 13.5375L20.265 12.935C20.415 12.7025 20.9325 12.045 21.7425 11.8975C22.4975 11.76 23.09 12.1425 23.3625 12.315L24.5575 11.7025C24.685 11.4875 25.0975 10.8175 25.7275 10.625C26.515 10.3875 27.02 10.885 27.0425 10.9025L26.705 11.2725C26.695 11.2625 25.0525 12.195 25.0475 12.2025L24.695 12.81L23.315 12.9L23.19 12.8C23.185 12.795 20.6575 13.2525 20.6525 13.26L20.605 13.3475L18.345 14.1075L18.235 13.99C18.22 13.975 15.8375 15.3375 15.8375 15.3375Z" fill="#DFDFDF"/>
<path d="M26.93 11.645C26.8725 11.65 26.4025 10.99 25.79 11.245C25.1775 11.5025 24.5925 12.555 24.5925 12.555L22.685 12.855C22.685 12.855 22.4275 12.335 21.715 12.535C21.0025 12.735 20.3625 13.61 20.3475 13.5525C20.3325 13.495 18.2475 14.0275 18.2475 14.0275C18.2475 14.0275 17.835 13.5675 17.1 13.75C16.34 13.94 15.9275 14.8725 15.9275 14.8725L13.56 14.4025C13.56 14.4025 13.155 13.7225 12.5425 13.6375C11.93 13.5525 11.5325 13.9525 11.5325 13.9525L9.76501 13.5225C9.76501 13.5225 9.49501 12.7825 8.72501 12.525C7.95501 12.2675 7.58501 12.595 7.58501 12.595L6.44001 11.8175C6.44001 11.8175 6.10251 11.2625 5.46001 10.9625C4.82001 10.6625 4.63501 11.1875 4.63501 11.1875L8.62501 27.975L16.265 31.0825L23.8075 27.78C23.8125 27.7825 27.1025 11.6275 26.93 11.645Z" fill="white"/>
<path d="M5.17749 11.14L5.17249 11.1225C5.10249 10.795 4.91999 10.0525 4.48749 9.715C3.92499 9.2775 3.54749 9.655 3.54749 9.655L7.88499 27.7L8.94499 28.105L5.17749 11.14Z" fill="#ED3D23"/>
<path d="M7.99004 12.495C7.99004 12.495 7.92254 11.3675 7.03254 11.1C6.32504 10.8875 6.29504 11.615 6.29504 11.615L9.81254 28.4625L11.155 29.0025L7.99004 12.495Z" fill="#ED3D23"/>
<path d="M11.765 13.7975C11.765 13.7975 11.4025 12.585 10.48 12.4825C9.55754 12.38 9.65004 13.155 9.65004 13.155L12.0375 29.37L13.38 29.915L11.765 13.7975Z" fill="#ED3D23"/>
<path d="M14.6975 13.455C13.685 13.3275 13.545 14.345 13.545 14.345L14.5925 30.41L16.2725 31.085L15.9725 14.79C15.9725 14.79 15.76 13.59 14.6975 13.455Z" fill="#ED3D23"/>
<path d="M20.5101 13.5175C20.5101 13.5175 20.5626 12.2425 19.4226 12.565C18.2826 12.885 18.1576 13.9525 18.1576 13.9525L17.8726 30.39L19.2876 29.7625L20.5101 13.5175Z" fill="#ED3D23"/>
<path d="M24.7375 12.15C24.7375 12.15 24.69 11.15 23.7125 11.3525C22.6875 11.5625 22.6775 12.595 22.6775 12.595L20.88 29.0775L22.245 28.475L24.7375 12.15Z" fill="#ED3D23"/>
<path d="M27.3475 9.755C26.5075 10.1575 26.435 11.2375 26.435 11.2375L23.5725 27.8925L24.915 27.2975L28.2925 9.8375C28.29 9.8375 28.0825 9.4025 27.3475 9.755Z" fill="#ED3D23"/>
</svg>
