<svg width="33" height="40" viewBox="0 0 33 40" fill="none" xmlns="http://www.w3.org/2000/svg">
<path fill-rule="evenodd" clip-rule="evenodd" d="M28.75 10H3.75C3.06 10 2.5 9.44125 2.5 8.75C2.5 8.06 3.06 7.5 3.75 7.5H28.75C29.44 7.5 30 8.06 30 8.75C30 9.44125 29.44 10 28.75 10ZM27.5 35C27.5 36.38 26.38 37.5 25 37.5H7.5C6.12 37.5 5 36.38 5 35V12.5H27.5V35ZM12.5 3.75C12.5 3.05875 13.06 2.5 13.75 2.5H18.75C19.44 2.5 20 3.05875 20 3.75V5H12.5V3.75ZM30 5H22.5V2.5C22.5 1.12 21.38 0 20 0H12.5C11.12 0 10 1.12 10 2.5V5H2.5C1.12 5 0 6.12 0 7.5V10C0 11.38 1.12 12.5 2.5 12.5V35C2.5 37.7613 4.73875 40 7.5 40H25C27.7613 40 30 37.7613 30 35V12.5C31.38 12.5 32.5 11.38 32.5 10V7.5C32.5 6.12 31.38 5 30 5ZM16.25 35C16.94 35 17.5 34.4412 17.5 33.75V18.75C17.5 18.06 16.94 17.5 16.25 17.5C15.56 17.5 15 18.06 15 18.75V33.75C15 34.4412 15.56 35 16.25 35ZM10 35C10.69 35 11.25 34.4412 11.25 33.75V18.75C11.25 18.06 10.69 17.5 10 17.5C9.31 17.5 8.75 18.06 8.75 18.75V33.75C8.75 34.4412 9.31 35 10 35ZM22.5 35C23.19 35 23.75 34.4412 23.75 33.75V18.75C23.75 18.06 23.19 17.5 22.5 17.5C21.81 17.5 21.25 18.06 21.25 18.75V33.75C21.25 34.4412 21.81 35 22.5 35Z" fill="white"/>
</svg>
