<svg width="34" height="40" viewBox="0 0 34 40" fill="none" xmlns="http://www.w3.org/2000/svg">
<path fill-rule="evenodd" clip-rule="evenodd" d="M29.5 10H4.5C3.81 10 3.25 9.44125 3.25 8.75C3.25 8.06 3.81 7.5 4.5 7.5H29.5C30.19 7.5 30.75 8.06 30.75 8.75C30.75 9.44125 30.19 10 29.5 10ZM28.25 35C28.25 36.38 27.13 37.5 25.75 37.5H8.25C6.87 37.5 5.75 36.38 5.75 35V12.5H28.25V35ZM13.25 3.75C13.25 3.05875 13.81 2.5 14.5 2.5H19.5C20.19 2.5 20.75 3.05875 20.75 3.75V5H13.25V3.75ZM30.75 5H23.25V2.5C23.25 1.12 22.13 0 20.75 0H13.25C11.87 0 10.75 1.12 10.75 2.5V5H3.25C1.87 5 0.75 6.12 0.75 7.5V10C0.75 11.38 1.87 12.5 3.25 12.5V35C3.25 37.7613 5.48875 40 8.25 40H25.75C28.5113 40 30.75 37.7613 30.75 35V12.5C32.13 12.5 33.25 11.38 33.25 10V7.5C33.25 6.12 32.13 5 30.75 5ZM17 35C17.69 35 18.25 34.4412 18.25 33.75V18.75C18.25 18.06 17.69 17.5 17 17.5C16.31 17.5 15.75 18.06 15.75 18.75V33.75C15.75 34.4412 16.31 35 17 35ZM10.75 35C11.44 35 12 34.4412 12 33.75V18.75C12 18.06 11.44 17.5 10.75 17.5C10.06 17.5 9.5 18.06 9.5 18.75V33.75C9.5 34.4412 10.06 35 10.75 35ZM23.25 35C23.94 35 24.5 34.4412 24.5 33.75V18.75C24.5 18.06 23.94 17.5 23.25 17.5C22.56 17.5 22 18.06 22 18.75V33.75C22 34.4412 22.56 35 23.25 35Z" fill="#030C1A"/>
</svg>
