<?xml version="1.0" encoding="utf-8"?>
<!-- Generator: Adobe Illustrator 21.0.0, SVG Export Plug-In . SVG Version: 6.00 Build 0)  -->
<svg version="1.1" id="Capa_1" xmlns="http://www.w3.org/2000/svg" xmlns:xlink="http://www.w3.org/1999/xlink" x="0px" y="0px"
	 viewBox="0 0 512 512" style="enable-background:new 0 0 512 512;" xml:space="preserve">
<style type="text/css">
	.st0{fill:#421603;}
</style>
<g>
	<g>
		<path class="st0" d="M456.5,105.8H445c-4.1,0-7.5,3.4-7.5,7.5s3.4,7.5,7.5,7.5h11.5c4.1,0,7.5-3.4,7.5-7.5
			S460.7,105.8,456.5,105.8z"/>
	</g>
</g>
<g>
	<g>
		<path class="st0" d="M504.5,151.1c-4.1,0-7.5,3.4-7.5,7.5v11.5c0,4.1,3.4,7.5,7.5,7.5s7.5-3.4,7.5-7.5v-11.5
			C512,154.5,508.6,151.1,504.5,151.1z"/>
	</g>
</g>
<g>
	<g>
		<path class="st0" d="M504.5,334.4c-4.1,0-7.5,3.4-7.5,7.5v11.5c0,4.1,3.4,7.5,7.5,7.5s7.5-3.4,7.5-7.5v-11.5
			C512,337.7,508.6,334.4,504.5,334.4z"/>
	</g>
</g>
<g>
	<g>
		<path class="st0" d="M504.5,288.6c-4.1,0-7.5,3.4-7.5,7.5v11.5c0,4.1,3.4,7.5,7.5,7.5s7.5-3.4,7.5-7.5v-11.5
			C512,291.9,508.6,288.6,504.5,288.6z"/>
	</g>
</g>
<g>
	<g>
		<path class="st0" d="M504.5,242.7c-4.1,0-7.5,3.4-7.5,7.5v11.5c0,4.1,3.4,7.5,7.5,7.5s7.5-3.4,7.5-7.5v-11.5
			C512,246.1,508.6,242.7,504.5,242.7z"/>
	</g>
</g>
<g>
	<g>
		<path class="st0" d="M504.4,121.1c-2.9-3.8-6.4-7.1-10.4-9.6c-3.5-2.2-8.1-1.1-10.3,2.4s-1.1,8.1,2.4,10.3
			c2.5,1.5,4.6,3.5,6.3,5.8c1.5,2,3.7,3,6,3c1.6,0,3.1-0.5,4.5-1.5C506.2,129.1,506.9,124.4,504.4,121.1z"/>
	</g>
</g>
<g>
	<g>
		<path class="st0" d="M504.5,196.9c-4.1,0-7.5,3.4-7.5,7.5v11.5c0,4.1,3.4,7.5,7.5,7.5s7.5-3.4,7.5-7.5v-11.5
			C512,200.3,508.6,196.9,504.5,196.9z"/>
	</g>
</g>
<g>
	<g>
		<path class="st0" d="M503,380.4c-3.3-2.5-8-1.8-10.5,1.5c-1.7,2.3-3.9,4.3-6.3,5.8c-3.5,2.2-4.6,6.8-2.4,10.3
			c1.4,2.3,3.9,3.5,6.4,3.5c1.4,0,2.7-0.4,4-1.1c4.1-2.5,7.6-5.8,10.4-9.6C507,387.6,506.3,382.9,503,380.4z"/>
	</g>
</g>
<g>
	<g>
		<path class="st0" d="M456.6,391.2h-11.5c-4.1,0-7.5,3.4-7.5,7.5s3.4,7.5,7.5,7.5h11.5c4.1,0,7.5-3.4,7.5-7.5
			S460.7,391.2,456.6,391.2z"/>
	</g>
</g>
<g>
	<g>
		<path class="st0" d="M7.5,298.1c-4.1,0-7.5,3.4-7.5,7.5v11.6c0,4.1,3.4,7.5,7.5,7.5s7.5-3.4,7.5-7.5v-11.6
			C15,301.5,11.6,298.1,7.5,298.1z"/>
	</g>
</g>
<g>
	<g>
		<path class="st0" d="M60.5,105.8H48.9c-4.1,0-7.5,3.4-7.5,7.5s3.4,7.5,7.5,7.5h11.6c4.1,0,7.5-3.4,7.5-7.5S64.6,105.8,60.5,105.8z
			"/>
	</g>
</g>
<g>
	<g>
		<path class="st0" d="M33.5,390.8c-2.9-0.6-5.6-1.7-8-3.3c-3.5-2.3-8.1-1.3-10.4,2.2s-1.3,8.1,2.2,10.4c4.1,2.7,8.6,4.5,13.3,5.4
			c0.5,0.1,1,0.1,1.5,0.1c3.5,0,6.6-2.5,7.3-6C40.2,395.5,37.6,391.6,33.5,390.8z"/>
	</g>
</g>
<g>
	<g>
		<path class="st0" d="M78.4,391.2H66.8c-4.1,0-7.5,3.4-7.5,7.5s3.4,7.5,7.5,7.5h11.6c4.1,0,7.5-3.4,7.5-7.5S82.6,391.2,78.4,391.2z
			"/>
	</g>
</g>
<g>
	<g>
		<path class="st0" d="M21.8,116.9c-2.9-2.9-7.7-2.9-10.6,0c-3.4,3.4-6.2,7.4-8.1,11.9c-1.6,3.8,0.1,8.2,3.9,9.9c1,0.4,2,0.6,3,0.6
			c2.9,0,5.7-1.7,6.9-4.5c1.2-2.7,2.8-5.1,4.9-7.2C24.7,124.6,24.7,119.8,21.8,116.9z"/>
	</g>
</g>
<g>
	<g>
		<path class="st0" d="M7.5,158.8c-4.1,0-7.5,3.4-7.5,7.5v11.6c0,4.1,3.4,7.5,7.5,7.5s7.5-3.4,7.5-7.5v-11.6
			C15,162.1,11.6,158.8,7.5,158.8z"/>
	</g>
</g>
<g>
	<g>
		<path class="st0" d="M7.5,205.2c-4.1,0-7.5,3.4-7.5,7.5v11.6c0,4.1,3.4,7.5,7.5,7.5s7.5-3.4,7.5-7.5v-11.6
			C15,208.6,11.6,205.2,7.5,205.2z"/>
	</g>
</g>
<g>
	<g>
		<path class="st0" d="M7.5,251.7c-4.1,0-7.5,3.4-7.5,7.5v11.6c0,4.1,3.4,7.5,7.5,7.5s7.5-3.4,7.5-7.5v-11.6
			C15,255,11.6,251.7,7.5,251.7z"/>
	</g>
</g>
<g>
	<g>
		<path class="st0" d="M7.5,344.6c-4.1,0-7.5,3.4-7.5,7.5v11.6c0,4.1,3.4,7.5,7.5,7.5s7.5-3.4,7.5-7.5v-11.6
			C15,347.9,11.6,344.6,7.5,344.6z"/>
	</g>
</g>
<g>
	<g>
		<path class="st0" d="M414.3,192.9c8.7,0,15.8-6.7,15.8-15v-16c0-8.3-7.1-15-15.8-15h-2.1v-26.2c3.4-0.7,6-3.7,6-7.3
			s-2.6-6.7-6-7.3V38c0-21-17.1-38-38-38H149.8c-21,0-38,17.1-38,38v42.6h-2.1c-8.7,0-15.8,6.7-15.8,15v10.3c-3.4,0.7-6,3.7-6,7.3
			c0,4.1,3.4,7.5,7.5,7.5h1.8c2.9,3.6,7.4,5.9,12.5,5.9h2.1v7.9h-2.1c-8.7,0-15.8,6.7-15.8,15v16c0,8.3,7.1,15,15.8,15h2.1V226
			c0,4.1,3.4,7.5,7.5,7.5s7.5-3.4,7.5-7.5V106.1h270.4v345H126.8V258c0-4.1-3.4-7.5-7.5-7.5s-7.5,3.4-7.5,7.5v133.4
			c-3.4,0.7-6,3.7-6,7.3s2.6,6.7,6,7.3v68c0,21,17.1,38,38,38h224.4c21,0,38-17.1,38-38v-67.9c3.4-0.7,6-3.7,6-7.3s-2.6-6.7-6-7.3
			v-8.2h2.1c8.7,0,15.8-6.7,15.8-15V240.8c0-8.3-7.1-15-15.8-15h-2.1v-32.9H414.3z M111.8,111.7h-2.1c-0.4,0-0.7-0.1-0.8-0.2V95.9
			c0.1-0.1,0.4-0.2,0.8-0.2h2.1V111.7z M111.8,165.7h-2.1c-0.4,0-0.7-0.1-0.8-0.2v-15.6c0.1-0.1,0.4-0.2,0.8-0.2h2.1V165.7z
			 M397.2,474c0,12.7-10.3,23-23,23H149.8c-12.7,0-23-10.3-23-23v-7.9h270.4V474L397.2,474z M397.2,54.3h-50.9
			c-4.1,0-7.5,3.4-7.5,7.5s3.4,7.5,7.5,7.5h50.9v21.8H126.8V69.3h189.8c4.1,0,7.5-3.4,7.5-7.5s-3.4-7.5-7.5-7.5H126.8V38
			c0-12.7,10.3-23,23-23h224.4c12.7,0,23,10.3,23,23V54.3z M414.3,240.8c0.4,0,0.7,0.1,0.8,0.2v126.9c-0.1,0.1-0.4,0.2-0.8,0.2h-2.1
			V240.8H414.3z M412.2,177.9v-16h2.1c0.4,0,0.7,0.1,0.8,0.2v15.6c-0.1,0.1-0.4,0.2-0.8,0.2H412.2z"/>
	</g>
</g>
<g>
	<g>
		<path class="st0" d="M275.2,28h-25c-4.1,0-7.5,3.4-7.5,7.5s3.4,7.5,7.5,7.5h25c4.1,0,7.5-3.4,7.5-7.5S279.3,28,275.2,28z"/>
	</g>
</g>
<g>
	<g>
		<path class="st0" d="M222.9,28h-1c-4.1,0-7.5,3.4-7.5,7.5s3.4,7.5,7.5,7.5h1c4.1,0,7.5-3.4,7.5-7.5S227,28,222.9,28z"/>
	</g>
</g>
<g>
	<g>
		<path class="st0" d="M275.2,472.7h-25c-4.1,0-7.5,3.4-7.5,7.5s3.4,7.5,7.5,7.5h25c4.1,0,7.5-3.4,7.5-7.5S279.3,472.7,275.2,472.7z
			"/>
	</g>
</g>
<g>
	<g>
		<path class="st0" d="M364.4,262l-22.5-22.5c-1.4-1.4-3.3-2.2-5.3-2.2s-3.9,0.8-5.3,2.2L308.8,262c-2.9,2.9-2.9,7.7,0,10.6
			c1.5,1.5,3.4,2.2,5.3,2.2s3.8-0.7,5.3-2.2l9.3-9.3c-3.6,36.9-34.9,65.9-72.7,65.9c-4.1,0-7.5,3.4-7.5,7.5s3.4,7.5,7.5,7.5
			c46.3,0,84.4-36,87.8-81.5l10,10c2.9,2.9,7.7,2.9,10.6,0C367.3,269.6,367.3,264.9,364.4,262z"/>
	</g>
</g>
<g>
	<g>
		<path class="st0" d="M256,167.9c-46.3,0-84.4,36-87.8,81.5l-10-10c-2.9-2.9-7.7-2.9-10.6,0s-2.9,7.7,0,10.6l22.5,22.5
			c1.4,1.4,3.3,2.2,5.3,2.2s3.9-0.8,5.3-2.2l22.5-22.5c2.9-2.9,2.9-7.7,0-10.6c-2.9-2.9-7.7-2.9-10.6,0l-9.3,9.3
			c3.6-36.9,34.9-65.9,72.7-65.9c4.1,0,7.5-3.4,7.5-7.5C263.5,171.3,260.1,167.9,256,167.9z"/>
	</g>
</g>
<g>
	<g>
		<path class="st0" d="M301.5,235.4l-42.3-29.2c-1.6-1.1-3.7-1.6-5.6-1.2c-2,0.4-3.7,1.5-4.8,3.1l-40.1,58.1
			c-2.4,3.4-1.5,8.1,1.9,10.4l42.3,29.2c1.3,0.9,2.8,1.3,4.3,1.3c0.4,0,0.9,0,1.3-0.1c2-0.4,3.7-1.5,4.8-3.1l40.1-58.1
			C305.7,242.4,304.9,237.8,301.5,235.4z M255.2,289.2l-29.9-20.7l31.6-45.7l29.9,20.7L255.2,289.2z"/>
	</g>
</g>
<g>
	<g>
		<path class="st0" d="M316.5,380h-21.1c-4.1,0-7.5,3.4-7.5,7.5s3.4,7.5,7.5,7.5h21.1c4.1,0,7.5-3.4,7.5-7.5S320.7,380,316.5,380z"
			/>
	</g>
</g>
<g>
	<g>
		<path class="st0" d="M265.2,380h-69.7c-4.1,0-7.5,3.4-7.5,7.5s3.4,7.5,7.5,7.5h69.7c4.1,0,7.5-3.4,7.5-7.5S269.3,380,265.2,380z"
			/>
	</g>
</g>
<g>
	<g>
		<path class="st0" d="M316.5,403.5h-121c-4.1,0-7.5,3.4-7.5,7.5s3.4,7.5,7.5,7.5h121.1c4.1,0,7.5-3.4,7.5-7.5
			S320.7,403.5,316.5,403.5z"/>
	</g>
</g>
</svg>
