<svg width="800" height="800" viewBox="0 0 800 800" fill="none" xmlns="http://www.w3.org/2000/svg">
<g clip-path="url(#clip0_255_2)">
<path d="M799.792 386.948C793.081 176.794 623.206 6.92451 413.057 0.213293C298.708 -3.4147 191.728 40.11 112.664 121.74C36.6562 200.213 -3.2798 303.667 0.213409 413.057C6.91901 623.206 176.794 793.081 386.943 799.787C391.318 799.927 395.653 799.994 400 799.994C509.255 799.994 611.3 756.762 687.336 678.26C763.344 599.792 803.285 496.333 799.792 386.948ZM626.828 619.656C566.803 681.63 486.246 715.759 400 715.759C396.552 715.759 393.103 715.702 389.627 715.596C223.773 710.3 89.7057 576.233 84.4041 410.373C81.6466 323.986 113.17 242.295 173.172 180.349C233.197 118.376 313.754 84.2468 400 84.2468C403.448 84.2468 406.897 84.3029 410.373 84.4096C576.227 89.7056 710.294 223.773 715.596 389.633C718.353 476.019 686.825 557.711 626.828 619.656Z" fill="white"/>
<path d="M531.197 376.76L353.819 249.579C334.898 236.01 308.559 249.534 308.559 272.818V527.187C308.559 550.472 334.898 563.995 353.819 550.427L531.192 423.239C547.108 411.833 547.108 388.172 531.197 376.76Z" fill="white"/>
</g>
<defs>
<clipPath id="clip0_255_2">
<rect width="800" height="800" fill="white"/>
</clipPath>
</defs>
</svg>
